<svg xmlns="http://www.w3.org/2000/svg" viewBox="0 0 58.08 50.8"><defs><style>.cls-1{fill:#00d9c1;}.cls-2{fill:#00cb01;}</style></defs><g id="Layer_2" data-name="Layer 2"><g id="Layer_1-2" data-name="Layer 1"><path class="cls-1" d="M0,50V0H16A28.87,28.87,0,0,1,22.7.82a16.52,16.52,0,0,1,5.5,2.44,11.85,11.85,0,0,1,3.69,4.2,12.72,12.72,0,0,1,1.3,6.06,10.2,10.2,0,0,1-2.06,6.33,13.06,13.06,0,0,1-5.46,4.07,13.08,13.08,0,0,1,3.73,1.67,10.7,10.7,0,0,1,2.73,2.59,11.78,11.78,0,0,1,1.68,3.34,12.83,12.83,0,0,1,.58,3.9,14.32,14.32,0,0,1-1.3,6.28,12.65,12.65,0,0,1-3.62,4.53A16.25,16.25,0,0,1,24,49a24.57,24.57,0,0,1-6.84,1ZM8.27,21h7.9a13.12,13.12,0,0,0,3.45-.5,8.12,8.12,0,0,0,2.76-1.37,6.76,6.76,0,0,0,1.85-2.23,6.49,6.49,0,0,0,.69-3,7.41,7.41,0,0,0-.65-3.23,5.84,5.84,0,0,0-1.84-2.19,8.07,8.07,0,0,0-2.8-1.26A16,16,0,0,0,16.1,6.8H8.27Zm0,6.28V43.25h9a11.4,11.4,0,0,0,3.57-.61,8.27,8.27,0,0,0,2.78-1.56,7.05,7.05,0,0,0,1.84-2.43,7.53,7.53,0,0,0,.67-3.23A9.43,9.43,0,0,0,25.54,32a6.63,6.63,0,0,0-1.69-2.52,7.58,7.58,0,0,0-2.67-1.6,10.89,10.89,0,0,0-3.54-.6Z"/><path class="cls-2" d="M52,35a4.86,4.86,0,0,0-1-1.53,4.3,4.3,0,0,0-1.57-1,7.69,7.69,0,0,0-2.22-.42,17.46,17.46,0,0,0-3,.1,30.85,30.85,0,0,1-4.52.18,13.18,13.18,0,0,1-3.8-.66,8.6,8.6,0,0,1-3-1.79,9.54,9.54,0,0,1-2.23-3.21,9.83,9.83,0,0,1-.92-3.57,8.39,8.39,0,0,1,.47-3.36,8.94,8.94,0,0,1,1.77-3,12.33,12.33,0,0,1,3-2.44l-2.13-4.7L36.2,8.07l2.15,4.74a11,11,0,0,1,3.83-.48,9.06,9.06,0,0,1,3.44.92,10.1,10.1,0,0,1,3,2.3,14.59,14.59,0,0,1,2.33,3.68l-5.15,2.33a9.4,9.4,0,0,0-1.44-2.3,6,6,0,0,0-1.76-1.43,4.44,4.44,0,0,0-2-.51,5.07,5.07,0,0,0-2.18.5,6.33,6.33,0,0,0-1.93,1.26,4.16,4.16,0,0,0-1,1.55,4.11,4.11,0,0,0-.22,1.76,6,6,0,0,0,.53,1.9,5.3,5.3,0,0,0,1,1.54,3.93,3.93,0,0,0,1.53.94,8.14,8.14,0,0,0,2.24.41,21.84,21.84,0,0,0,3.12-.11,35.92,35.92,0,0,1,4.54-.15,13.31,13.31,0,0,1,3.78.68,8.65,8.65,0,0,1,3,1.8,9.88,9.88,0,0,1,2.19,3.19,9.77,9.77,0,0,1,.94,3.67,8.09,8.09,0,0,1-.56,3.36,9,9,0,0,1-1.92,3,13.57,13.57,0,0,1-3.17,2.46l1.89,4.19L50.89,50.8,49,46.64a13.93,13.93,0,0,1-3.72.72,9.29,9.29,0,0,1-7-2.56,12.31,12.31,0,0,1-2.71-4l5.15-2.34A7.5,7.5,0,0,0,42.43,41a5.16,5.16,0,0,0,2,1.19,5,5,0,0,0,2.17.13,7.81,7.81,0,0,0,2.08-.62,6.21,6.21,0,0,0,3.36-3A4.4,4.4,0,0,0,52,35Z"/></g></g></svg>
