<svg xmlns="http://www.w3.org/2000/svg" viewBox="0 0 1937.14 983">
	<defs>
		<linearGradient id="Gradient" x1="0" x2="0" y1="0" y2="1">
			<stop class="stop1" offset="0%" />
			<stop class="stop2" offset="80%" stop-opacity="0" />
		</linearGradient>
		<style>
		.cls-1{fill:#aac7f210;}
		.cls-2,
		.cls-3,
		.cls-4{fill:none;}
		.cls-2,
		.cls-3{stroke:#7da8f410;}
		.cls-2,
		.cls-3,
		.cls-4,
		.cls-5{stroke-miterlimit:10;}
		.cls-2,
		.cls-4{stroke-width:7px;}
		.cls-4,
		.cls-5{stroke:#27699310;}
		.cls-5{fill:#ffffff10;}
		<![CDATA[
			#grad{fill: url(#Gradient)}
			.stop1{stop-color: #aac7f230}
			.stop2{stop-color: #aac7f205}
		]]>
		</style>
	</defs>
	<g id="Layer_2" data-name="Layer 2">
		<g id="Layer_1-2" data-name="Layer 1">
			<path id="grad"
				d="M1857.5,928H54.5S244.74,698.38,312,647.5c84.24-63.72,225.31,56.64,386,1,87.08-30.15,181.5-210.72,276.13-238.93,66.95-20,163.53,63.26,229.87,44.93,103.25-28.53,174.52-157.25,265-180.13,121.48-30.7,205.28,223.31,275,207.13,59-13.69,113.5-300,113.5-300Z"/>
				<line class="cls-2" x1="4" y1="928" x2="1930" y2="928"/>
				<line class="cls-3" y1="787" x2="1926" y2="787"/>
				<line class="cls-3" x1="4" y1="646" x2="1930" y2="646"/>
				<line class="cls-3" x1="11.14" y1="492.66" x2="1937.14" y2="492.66"/>
				<line class="cls-3" x1="11.14" y1="492.66" x2="1937.14" y2="492.66"/>
				<line class="cls-3" x1="11" y1="212" x2="1937" y2="212"/>
				<line class="cls-3" x1="11" y1="352" x2="1937" y2="352"/>
				<line class="cls-3" x1="4" y1="65" x2="1930" y2="65"/>
				<line class="cls-2" x1="54.5" x2="54.5" y2="983"/>
				<path class="cls-4" d="M55,928.5s203-261.62,280-294c71.8-30.18,219.12,55.16,336,22,141-40,175.08-197.77,319-249,59-21,127.24,72.82,214,47,108.13-32.17,180.79-162.57,284-183,96-19,193,234,262,211,58-19.32,108-312,108-312"/>
				<circle class="cls-5" cx="348.5" cy="631" r="10"/>
				<circle class="cls-5" cx="639.5" cy="661" r="10"/>
				<circle class="cls-5" cx="1001.5" cy="407" r="10"/>
				<circle class="cls-5" cx="816.5" cy="550" r="10"/>
				<circle class="cls-5" cx="1170.5" cy="459" r="10"/>
				<circle class="cls-5" cx="1343.5" cy="363" r="10"/>
				<circle class="cls-5" cx="1509.5" cy="274" r="10"/>
				<circle class="cls-5" cx="1640.5" cy="397" r="10"/>
				<circle class="cls-5" cx="1744.5" cy="486" r="10"/>
				<circle class="cls-5" cx="1858.5" cy="182" r="10"/>
		</g>
	</g>
</svg>
